<svg xmlns="http://www.w3.org/2000/svg" width="900" height="900" viewBox="0 0 900 900">
  <defs>
    <linearGradient id="sun" x1="0" y1="0" x2="1" y2="1">
      <stop offset="0" stop-color="#ffedd5"/>
      <stop offset="1" stop-color="#fb923c"/>
    </linearGradient>
    <linearGradient id="bg" x1="0" y1="0" x2="1" y2="1">
      <stop offset="0" stop-color="#f5f5f5"/>
      <stop offset="1" stop-color="#ffffff"/>
    </linearGradient>
  </defs>
  <rect width="900" height="900" fill="url(#bg)"/>
  <!-- Orange semicircle background -->
  <path d="M150 700a300 300 0 1 1 600 0" fill="url(#sun)"/>
  <!-- Doodles -->
  <g fill="none" stroke="#7c3aed" stroke-width="6" stroke-linecap="round">
    <path d="M190 520c60 40 120 40 180 0"/>
    <circle cx="230" cy="570" r="12"/>
    <path d="M720 520c-40 20-80 20-120 0"/>
    <path d="M670 590c20 10 30 25 50 45"/>
    <path d="M240 640c30 10 60 10 90 0"/>
    <path d="M330 520c10-15 30-25 50-30"/>
    <path d="M560 520c-10-15-30-25-50-30"/>
  </g>
  <!-- Abstract avatar -->
  <g transform="translate(300 260)">
    <circle cx="150" cy="120" r="80" fill="#fde68a"/>
    <path d="M70 250c40-30 220-30 260 0v110H70z" fill="#1f2937"/>
    <circle cx="150" cy="120" r="68" fill="#fef3c7"/>
    <path d="M100 140c30 20 70 20 100 0" stroke="#0f172a" stroke-width="8" fill="none" stroke-linecap="round"/>
    <circle cx="120" cy="110" r="10" fill="#0f172a"/>
    <circle cx="180" cy="110" r="10" fill="#0f172a"/>
    <path d="M80 210c40-20 160-20 200 0" fill="#fb923c"/>
    <path d="M60 180c-10-70 40-130 140-130s150 60 140 130" fill="none" stroke="#0f172a" stroke-width="10" stroke-linecap="round"/>
  </g>
 </svg>
